<svg width="129" height="25" viewBox="0 0 129 25" fill="none" xmlns="http://www.w3.org/2000/svg">
<g id="Group 32">
<path id="Star 2" d="M11.8395 2.03267C12.0474 1.39287 12.9526 1.39288 13.1605 2.03267L15.1505 8.15744C15.2435 8.44357 15.5101 8.63729 15.811 8.63729H22.2509C22.9237 8.63729 23.2034 9.49813 22.6591 9.89355L17.4491 13.6789C17.2057 13.8557 17.1038 14.1691 17.1968 14.4553L19.1869 20.58C19.3947 21.2198 18.6625 21.7519 18.1182 21.3565L12.9082 17.5711C12.6648 17.3943 12.3352 17.3943 12.0918 17.5711L6.88178 21.3565C6.33753 21.7519 5.60526 21.2198 5.81314 20.58L7.8032 14.4553C7.89616 14.1691 7.79432 13.8557 7.55092 13.6789L2.34089 9.89355C1.79664 9.49813 2.07635 8.63729 2.74907 8.63729H9.18903C9.48988 8.63729 9.75652 8.44356 9.84949 8.15744L11.8395 2.03267Z" fill="white"/>
<path id="Star 3" d="M37.8395 2.03267C38.0474 1.39287 38.9526 1.39288 39.1605 2.03267L41.1505 8.15744C41.2435 8.44357 41.5101 8.63729 41.811 8.63729H48.2509C48.9237 8.63729 49.2034 9.49813 48.6591 9.89355L43.4491 13.6789C43.2057 13.8557 43.1038 14.1691 43.1968 14.4553L45.1869 20.58C45.3947 21.2198 44.6625 21.7519 44.1182 21.3565L38.9082 17.5711C38.6648 17.3943 38.3352 17.3943 38.0918 17.5711L32.8818 21.3565C32.3375 21.7519 31.6053 21.2198 31.8131 20.58L33.8032 14.4553C33.8962 14.1691 33.7943 13.8557 33.5509 13.6789L28.3409 9.89355C27.7966 9.49813 28.0763 8.63729 28.7491 8.63729H35.189C35.4899 8.63729 35.7565 8.44356 35.8495 8.15744L37.8395 2.03267Z" fill="white"/>
<path id="Star 4" d="M63.8395 2.03267C64.0474 1.39287 64.9526 1.39288 65.1605 2.03267L67.1505 8.15744C67.2435 8.44357 67.5101 8.63729 67.811 8.63729H74.2509C74.9237 8.63729 75.2034 9.49813 74.6591 9.89355L69.4491 13.6789C69.2057 13.8557 69.1038 14.1691 69.1968 14.4553L71.1869 20.58C71.3947 21.2198 70.6625 21.7519 70.1182 21.3565L64.9082 17.5711C64.6648 17.3943 64.3352 17.3943 64.0918 17.5711L58.8818 21.3565C58.3375 21.7519 57.6053 21.2198 57.8131 20.58L59.8032 14.4553C59.8962 14.1691 59.7943 13.8557 59.5509 13.6789L54.3409 9.89355C53.7966 9.49813 54.0763 8.63729 54.7491 8.63729H61.189C61.4899 8.63729 61.7565 8.44356 61.8495 8.15744L63.8395 2.03267Z" fill="white"/>
<path id="Star 5" d="M89.8395 2.03267C90.0474 1.39287 90.9526 1.39288 91.1605 2.03267L93.1505 8.15744C93.2435 8.44357 93.5101 8.63729 93.811 8.63729H100.251C100.924 8.63729 101.203 9.49813 100.659 9.89355L95.4491 13.6789C95.2057 13.8557 95.1038 14.1691 95.1968 14.4553L97.1869 20.58C97.3947 21.2198 96.6625 21.7519 96.1182 21.3565L90.9082 17.5711C90.6648 17.3943 90.3352 17.3943 90.0918 17.5711L84.8818 21.3565C84.3375 21.7519 83.6053 21.2198 83.8131 20.58L85.8032 14.4553C85.8962 14.1691 85.7943 13.8557 85.5509 13.6789L80.3409 9.89355C79.7966 9.49813 80.0763 8.63729 80.7491 8.63729H87.189C87.4899 8.63729 87.7565 8.44356 87.8495 8.15744L89.8395 2.03267Z" fill="white"/>
<path id="Star 6" d="M115.84 2.03267C116.047 1.39287 116.953 1.39288 117.16 2.03267L119.151 8.15744C119.243 8.44357 119.51 8.63729 119.811 8.63729H126.251C126.924 8.63729 127.203 9.49813 126.659 9.89355L121.449 13.6789C121.206 13.8557 121.104 14.1691 121.197 14.4553L123.187 20.58C123.395 21.2198 122.662 21.7519 122.118 21.3565L116.908 17.5711C116.665 17.3943 116.335 17.3943 116.092 17.5711L110.882 21.3565C110.338 21.7519 109.605 21.2198 109.813 20.58L111.803 14.4553C111.896 14.1691 111.794 13.8557 111.551 13.6789L106.341 9.89355C105.797 9.49813 106.076 8.63729 106.749 8.63729H113.189C113.49 8.63729 113.757 8.44356 113.849 8.15744L115.84 2.03267Z" fill="white"/>
</g>
</svg>
